<?xml version="1.0" encoding="UTF-8"?>
<!-- Generated by Pixelmator Pro 3.6.16 -->
<svg width="3000" height="1000" viewBox="0 0 3000 1000" xmlns="http://www.w3.org/2000/svg">
    <g id="Meridian2">
        <path id="Triangle" fill="#ffffff" fill-rule="evenodd" stroke="none" d="M 650.418335 275 L 391.113342 725 L 650.70459 725 L 780.81073 499.403198 L 650.418335 275 Z"/>
        <path id="path1" fill="#ffffff" fill-rule="evenodd" stroke="none" d="M 910.009583 275 L 780.81073 499.403198 L 909.723206 725 L 1169.314453 725 Z"/>
    </g>
    <path id="MERIDIAN" fill="#ffffff" fill-rule="evenodd" stroke="none" d="M 2384.275635 725 L 2384.275635 275 L 2446.214111 275 L 2543.545166 546.137634 L 2544.80957 546.137634 L 2544.80957 275 L 2609.275635 275 L 2609.275635 725 L 2548.601807 725 L 2450.006348 454.494446 L 2448.741699 454.494446 L 2448.741699 725 Z M 2278.727783 567.626465 L 2247.126465 404.564636 L 2245.862793 404.564636 L 2214.261719 567.626465 Z M 2119.458252 725 L 2219.949707 275 L 2273.671875 275 L 2374.16333 725 L 2309.697266 725 L 2290.736084 628.300598 L 2202.885498 628.300598 L 2183.924316 725 Z M 2040.455566 725 L 2040.455566 275 L 2104.921631 275 L 2104.921631 725 Z M 1788.278809 725 L 1788.278809 275 L 1883.713745 275 C 1920.792969 275 1948.917358 285.112244 1968.089233 305.337158 C 1987.260376 325.562073 1996.845947 354.213379 1996.845947 391.292236 L 1996.845947 601.755737 C 1996.845947 643.890625 1986.628052 674.964844 1966.192383 694.979004 C 1945.757568 714.993103 1916.368652 725 1878.025635 725 Z M 1852.744873 335.674133 L 1852.744873 664.325867 L 1882.449951 664.325867 C 1900.567993 664.325867 1913.418823 659.796387 1921.003662 650.737305 C 1928.587891 641.678223 1932.379883 627.458008 1932.379883 608.075928 L 1932.379883 391.292236 C 1932.379883 373.595459 1928.798584 359.901855 1921.635254 350.210693 C 1914.472534 340.519592 1901.410645 335.674133 1882.449951 335.674133 Z M 1680.202515 725 L 1680.202515 275 L 1744.669189 275 L 1744.669189 725 Z M 1492.492188 335.674133 L 1492.492188 475.983093 L 1529.149536 475.983093 C 1540.525757 475.983093 1549.584839 474.403198 1556.326294 471.243042 C 1563.068115 468.082825 1568.334717 463.553528 1572.126831 457.654663 C 1575.497803 451.755615 1577.814941 444.487366 1579.079102 435.849854 C 1580.343262 427.212097 1580.975098 417.2052 1580.975098 405.828613 C 1580.975098 394.452209 1580.343262 384.445313 1579.079102 375.807617 C 1577.814941 367.169861 1575.286987 359.691101 1571.494995 353.370911 C 1563.489258 341.572998 1548.320679 335.674133 1525.98938 335.674133 Z M 1428.025757 725 L 1428.025757 275 L 1531.67749 275 C 1607.520752 275 1645.441528 319.030579 1645.441528 407.092773 C 1645.441528 433.637878 1641.333374 456.179749 1633.116943 474.719177 C 1624.900513 493.258575 1610.469849 508.216309 1589.823486 519.592712 L 1659.346069 725 L 1591.087646 725 L 1531.045532 532.865173 L 1492.492188 532.865173 L 1492.492188 725 Z M 1221.866577 725 L 964 275 L 1405.272949 275 L 1405.272949 335.674133 L 1283.404053 335.674133 L 1283.404053 467.766907 L 1389.586914 467.766907 L 1389.586914 528.44104 L 1283.404053 528.44104 L 1283.404053 660.533569 L 1405.272949 660.533569 L 1405.272949 725 Z"/>
</svg>
